<?xml version="1.0" encoding="utf-8"?>
<!-- Generator: Adobe Illustrator 22.1.0, SVG Export Plug-In . SVG Version: 6.00 Build 0)  -->
<svg version="1.1" xmlns="http://www.w3.org/2000/svg" xmlns:xlink="http://www.w3.org/1999/xlink" x="0px" y="0px"
	 viewBox="0 0 43.2 43.2" style="enable-background:new 0 0 43.2 43.2;" xml:space="preserve">
<style type="text/css">
	.st0{fill:#FFFFFF;}
</style>
<g id="Backgound">
</g>
<g id="Layer_1">
	<g>
		<polygon class="st0" points="14.5,18.3 21.6,13.2 28.7,18.4 29.3,17.6 21.6,12 21.6,12 21.6,12 21.6,12 21.6,12 13.9,17.5 		"/>
		<path class="st0" d="M27.3,18.3l-5.8-3.8l-5.8,3.8v4.3l-3.4,2.7v5.8H20v-4.5h3.3v4.5h7.3v-5.8L27.3,23V18.3z M18.4,28.5h-3.8v-1.8
			h3.8V28.5z M20.8,21.6h-3.9v-2.8h3.9V21.6z M22,21.6v-2.8h3.9v2.8H22z M29,26.7v1.8h-3.8v-1.8H29z"/>
		<path class="st0" d="M28.3,22.4c0,0,3.8,3,3.9,2.9c0.1-0.1,0.6-0.9,0.6-0.9l-4.5-3.3V22.4z"/>
		<path class="st0" d="M14.8,21.1l-4.5,3.3c0,0,0.5,0.8,0.6,0.9c0.1,0.1,3.9-2.9,3.9-2.9V21.1z"/>
		<path class="st0" d="M3.7,39.5h35.8V3.7H3.7V39.5z M4.7,4.7h33.8v33.8H4.7V4.7z"/>
	</g>
</g>
</svg>
