<?xml version="1.0" encoding="utf-8"?>
<!-- Generator: Adobe Illustrator 22.1.0, SVG Export Plug-In . SVG Version: 6.00 Build 0)  -->
<svg version="1.1" xmlns="http://www.w3.org/2000/svg" xmlns:xlink="http://www.w3.org/1999/xlink" x="0px" y="0px"
	 viewBox="0 0 43.2 43.2" style="enable-background:new 0 0 43.2 43.2;" xml:space="preserve">
<style type="text/css">
	.st0{fill:#FFFFFF;}
</style>
<g id="Backgound">
</g>
<g id="Layer_1">
	<g>
		<path class="st0" d="M20.3,28.7h2.6v4.7h3.3V9.8h-8.9v23.6h3V28.7z M23.3,12h1.5v3.7h-1.5V12z M23.3,16.5h1.5v3.7h-1.5V16.5z
			 M23.3,21.2h1.5v3.7h-1.5V21.2z M20.9,12h1.5v3.7h-1.5V12z M20.9,16.5h1.5v3.7h-1.5V16.5z M20.9,21.2h1.5v3.7h-1.5V21.2z
			 M20.1,24.9h-1.5v-3.7h1.5V24.9z M20.1,20.2h-1.5v-3.7h1.5V20.2z M20.1,15.6h-1.5V12h1.5V15.6z"/>
		<path class="st0" d="M16.8,29.6h-1.9v-2.3h1.9v-1.6h-1.9v-2.3h1.9v-1.8h-1.9v-2.3h1.9v-1.7h-1.9v-2.3h1.9v-1.5H9.3v18.4h7.6V29.6z
			 M13,29.6h-2.3v-2.3H13V29.6z M13,25.7h-2.3v-2.3H13V25.7z M13,21.6h-2.3v-2.3H13V21.6z M13,17.6h-2.3v-2.3H13V17.6z"/>
		<path class="st0" d="M32.9,32.5h1v-1.2h-1v-2v-1v-0.4v-1.3v-1.4v-0.8V23v-0.7v-1.4v-0.8v-1.4v-0.8v-1.4h-1.5h-4.7v1.4h4.7v0.8
			h-4.7v1.4h4.7v0.8h-4.7v1.4h4.7V23h-4.7v1.4h4.7v0.8h-4.7v1.4h4.7v1.3h-4.7v0.4v1v2v1.2h4.7H32.9z M30.3,31.2h-2.8v-2.1h2.8V31.2z
			"/>
		<path class="st0" d="M3.7,3.7v35.8h35.8V3.7H3.7z M38.5,38.5H4.7V4.7h33.8V38.5z"/>
	</g>
</g>
</svg>
