<?xml version="1.0" encoding="utf-8"?>
<!-- Generator: Adobe Illustrator 22.1.0, SVG Export Plug-In . SVG Version: 6.00 Build 0)  -->
<svg version="1.1" xmlns="http://www.w3.org/2000/svg" xmlns:xlink="http://www.w3.org/1999/xlink" x="0px" y="0px"
	 viewBox="0 0 43.2 43.2" style="enable-background:new 0 0 43.2 43.2;" xml:space="preserve">
<style type="text/css">
	.st0{fill:#FFFFFF;}
</style>
<g id="Backgound">
</g>
<g id="Layer_1">
	<g>
		<polygon class="st0" points="21.6,11 21.6,11 21.6,11 21.6,11 13.1,17 13.8,17.9 21.6,12.3 29.4,18 30.1,17.1 21.6,11 		"/>
		<path class="st0" d="M28,18l-6.4-4.6L15.2,18v12.4h-1.5v1.8h15.9v-1.8H28V18z M26.5,28h-4.1v-3.7h4.1V28z M22.3,19.1h4.1v3.7h-4.1
			V19.1z M16.8,19.2H21v3.7h-4.1V19.2z M16.8,24.3H21v6h-4.1V24.3z"/>
		<path class="st0" d="M3.7,39.5h35.8V3.7H3.7V39.5z M4.7,4.7h33.8v33.8H4.7V4.7z"/>
	</g>
</g>
</svg>
