<?xml version="1.0" encoding="utf-8"?>
<!-- Generator: Adobe Illustrator 22.1.0, SVG Export Plug-In . SVG Version: 6.00 Build 0)  -->
<svg version="1.1" xmlns="http://www.w3.org/2000/svg" xmlns:xlink="http://www.w3.org/1999/xlink" x="0px" y="0px"
	 viewBox="0 0 43.2 43.2" style="enable-background:new 0 0 43.2 43.2;" xml:space="preserve">
<style type="text/css">
	.st0{fill:#FFFFFF;}
</style>
<g id="Backgound">
</g>
<g id="Layer_1">
	<g>
		<polygon class="st0" points="28.6,17.8 28.6,13.6 26.4,13.6 26.4,16.2 22.2,12.9 22.2,12.9 22.2,12.9 22.2,12.9 22.2,12.9 
			12.4,20.3 13.2,21.4 22.2,14.6 31.1,21.4 31.9,20.4 28.5,17.8 		"/>
		<path class="st0" d="M14.7,21.1v8.1h2.4v-6.5h3.2v6.5h9.2v-8.1l-7.4-5.2L14.7,21.1z M22.7,22.7h4.9v3.8h-4.9V22.7z"/>
		<path class="st0" d="M4.2,39h35.8V3.1H4.2V39z M5.2,4.1h33.8V38H5.2V4.1z"/>
	</g>
</g>
</svg>
