<?xml version="1.0" encoding="utf-8"?>
<!-- Generator: Adobe Illustrator 22.1.0, SVG Export Plug-In . SVG Version: 6.00 Build 0)  -->
<svg version="1.1" xmlns="http://www.w3.org/2000/svg" xmlns:xlink="http://www.w3.org/1999/xlink" x="0px" y="0px"
	 viewBox="0 0 43.2 43.2" style="enable-background:new 0 0 43.2 43.2;" xml:space="preserve">
<style type="text/css">
	.st0{fill:#FFFFFF;}
</style>
<g id="Backgound">
</g>
<g id="Layer_1">
	<g>
		<path class="st0" d="M19,12.4h-9v19.3h7.6V30H19V12.4z M13.6,28.9h-2.4v-2.3h2.4V28.9z M13.6,24.9h-2.4v-2.3h2.4V24.9z M13.6,20.9
			h-2.4v-2.3h2.4V20.9z M13.6,16.9h-2.4v-2.3h2.4V16.9z M18,28.9h-2.4v-2.3H18V28.9z M18,24.9h-2.4v-2.3H18V24.9z M18,20.9h-2.4
			v-2.3H18V20.9z M18,16.9h-2.4v-2.3H18V16.9z"/>
		<path class="st0" d="M31.7,10H19.8v21.2h-1.5v1.9h14.8v-1.9h-1.4V10z M27.4,31.9h-3.3v-2.7h3.3V31.9z M30.4,28h-9.6v-1.1h9.6V28z
			 M30.4,26h-9.6v-1.1h9.6V26z M30.4,24h-9.6v-1.1h9.6V24z M30.4,22h-9.6v-1.1h9.6V22z M30.4,20h-9.6v-1.1h9.6V20z M30.4,18h-9.6
			v-1.1h9.6V18z M30.4,16h-9.6v-1.1h9.6V16z M30.4,14h-9.6v-1.1h9.6V14z"/>
		<path class="st0" d="M3.7,39.5h35.8V3.7H3.7V39.5z M4.7,4.7h33.8v33.8H4.7V4.7z"/>
	</g>
</g>
</svg>
