<?xml version="1.0" encoding="utf-8"?>
<!-- Generator: Adobe Illustrator 22.1.0, SVG Export Plug-In . SVG Version: 6.00 Build 0)  -->
<svg version="1.1" id="Capa_1" xmlns="http://www.w3.org/2000/svg" xmlns:xlink="http://www.w3.org/1999/xlink" x="0px" y="0px"
	 viewBox="0 0 330 247.3" style="enable-background:new 0 0 330 247.3;" xml:space="preserve">
<style type="text/css">
	.st0{fill:#29B1C2;}
</style>
<g>
	<path class="st0" d="M122.6,89.2c12.9,19.7,30.7,34.6,50,47.8c2,1.3,6.5,1.2,8.6-0.2c18.8-12.8,36.1-27.4,49.4-46.1
		c7.9-11.1,13.2-23.1,11.9-37.3c-1.5-17.1-13.8-28.6-30.9-28.3c-15.5,0.3-25.7,9.2-34.3,22.2c-2.9-3.7-5.3-7.1-8-10.1
		c-10.5-11.6-28.8-15.8-41.1-9.6c-12.9,6.5-19.9,22.3-15.7,38.6C114.6,74.2,118.1,82.2,122.6,89.2z"/>
	<path class="st0" d="M327.7,106.5c-1.4-2.5-10.6-2.4-15.4-0.8c-7.8,2.4-14.9,5.9-23.6,4.7c-3-0.4-7.1,2.5-9.9,4.9
		c-9.6,8.5-18.9,17.4-28.2,26.3c-1.2,1.2-2,2.8-2.6,3.6c3.8,2,7.8,2.9,10.2,5.4c4.5,4.7,6.9,10.7,3.9,17.3
		c-2.9,6.5-8.7,8.5-15.4,8.8c-30.6,1.5-68.2,2.3-98.7,4c-1.5-1.1-2.9-2-4.4-2.8c3.2-0.7,6.4-1.4,9.7-1.8c15.8-2.3,32.2-1,48.3-1.6
		c16.4-0.6,32.7-1.3,49.1-2.5c5.5-0.4,9-3.9,8.3-10.1c-0.8-6.1-2.8-11-10.2-11.6c-19.3-1.6-38.6-3.2-57.9-5.3
		c-16.7-1.8-33.4-2.2-49.9-7.6c-37.2-12-70.6-5-97.6,25c-1.9,2.1-5,3.1-7.7,4.4c-11.6,5.3-23.2,10.4-35.6,16
		c11.2,20.6,25.5,36.2,42.1,49.5c2.3,1.8,7.9,1.9,10.5,0.3c7.5-4.3,14.8-9.3,21.5-14.9c4.9,1.2,10.1,2.4,11.1,2.6
		c26.2,3.5,52.6,6.1,78.7,10.7c17.7,3.1,32.8-1.8,47.6-10.1c33.1-18.5,63.5-40.6,91.1-66.6c9.6-9.1,18.3-19.5,25.6-30.6
		C331,119.7,330.3,111.1,327.7,106.5z"/>
</g>
</svg>
