<?xml version="1.0" encoding="utf-8"?>
<!-- Generator: Adobe Illustrator 22.1.0, SVG Export Plug-In . SVG Version: 6.00 Build 0)  -->
<svg version="1.1" id="Capa_1" xmlns="http://www.w3.org/2000/svg" xmlns:xlink="http://www.w3.org/1999/xlink" x="0px" y="0px"
	 viewBox="0 0 330 247.3" style="enable-background:new 0 0 330 247.3;" xml:space="preserve">
<style type="text/css">
	.st0{fill:#29B1C2;}
</style>
<g>
	<path class="st0" d="M20.1,163.8c11.3-0.2,22.7-0.9,34-0.9c13.1,0,13.1-1.4,16-11.1c0.1-0.2,0.5-0.4,1.2-0.8
		c4.9,3.3,10,6.8,15.1,10.1c6.5,4.2,13,8.4,19.5,12.6c1.5,1,2.9,2.1,4.4,3.1c10,6.7,19.9,13.4,29.9,20.1c8.2,7.1,18,8.8,28.4,8
		c3.3-0.3,7.4-1.1,9.6-3.3c4.2-4.2,8.4-4.1,13.7-3.4c10.9,1.4,20.1-5.3,21.7-15.1c11.3-0.1,20.1-4.9,25.5-15.1
		c0.3-0.5,0.9-1,1.5-1.1c8.2-2,14-7.3,19.1-14.6c1.3,3.4,2,6.5,3.6,9.1c1.1,1.9,3.4,4.3,5.2,4.3c13.7,0.1,27.3-0.4,41-0.7
		c3.1-0.1,4.6-1.9,4.2-4.9c-3.1-23.1-6.1-46.2-9.3-69.2c-1-7-2.7-14-3.7-21c-0.8-5.7-1-11.5-1.4-17.3c-0.3-4.4-2.6-5.5-6.8-4.8
		c-12,1.9-24,3.4-36,5.4c-3.1,0.5-6.1,2.3-9.4,3.7c-18.5-4.6-37.9-9.7-57.5-14.1c-14.5-3.3-29.6-4.8-44.1-1.2
		c-11.9,3-23.6,5-35.7,5.1c-0.2,0-0.3,0.1-0.5,0.1c-11.3,0-22.5,2.1-34.1-1c-13-3.4-26.5-4.7-39.8-6.5C27.4,38,25,40.4,24,48.4
		c-2,16.3-4.4,32.6-6.5,48.9c-2.5,18.6-5.1,37.2-7.3,55.9C9.2,160.9,12.3,164,20.1,163.8z M256.1,63.9c0.1-1.2,2.6-3.1,4.3-3.4
		c8.5-1.5,17.1-2.4,25.6-3.9c5-0.9,8,1.1,7.7,6c-0.2,3.3-0.3,6.6,0.1,9.8c3.4,27,7,54.1,10.5,81.1c0.1,1,0.2,1.9,0.3,4.1
		c-11,0-21.8,0.1-32.6-0.1c-0.9,0-2.1-1.8-2.7-2.9c-4.2-8.7-4.4-18.2-5.7-27.5c-2.2-15.3-5.2-30.5-7.4-45.8
		C255.5,75.6,255.8,69.7,256.1,63.9z M73.7,137.6c3.9-25.8,7.5-51.6,10.9-77.5c0.5-3.5,1.7-4.4,4.9-4.3c9.6,0.1,19.2,0.1,28.8,0.1
		c-2,3.4-4.6,7.2-6.6,11.3c-4.5,9-6.2,18.6-3.7,28.6c2.4,9.5,10.1,13.1,18.2,7.7c6.1-4.1,11.3-9.7,16.2-15.2c2.6-3,5.3-4.1,8.8-5.4
		c8.7-3.2,15.4-0.4,22.6,4.4c15.3,10.2,31.2,19.5,46.5,29.6c7.3,4.8,14.1,10.4,21,15.8c1.8,1.4,3.6,3.2,4.7,5.1
		c2.1,3.6,6.8,6.6,2.8,11.8c-5,6.6-9.1,8.1-15.7,5.8c-10-3.5-18.8-9-27-15.7c-1.6-1.3-3.6-2.3-5.4-3.4c-2.4-2.6-4.5-5.7-7.4-7.7
		c-1.3-0.9-4.7-0.5-6.1,0.7c-1.2,1-1.7,4.6-0.8,5.7c2.3,2.8,5.5,4.9,8.3,7.3c1.3,1.6,2.3,3.7,3.9,4.8c9.4,6.4,19,12.5,28.7,18.9
		c-1.6,4.2-8.5,7.8-14.6,6.8c-8.3-1.3-15.1-5.6-21.5-10.9c-3-2.5-6.4-4.4-9.7-6.5c-3.9-3.4-7.6-7-11.7-10c-1-0.7-4.2,0.1-5,1.2
		c-1.1,1.4-1.7,4.9-0.9,5.7c3.6,3.3,7.9,6,11.9,8.8c5.2,4.6,10.2,9.5,15.7,13.7c3.8,2.8,8.3,4.7,12.5,6.9c-3.9,5.9-8.9,8.5-15.2,5.9
		c-6.9-2.8-13.3-7.1-19.9-10.8c-1.8-1-3.5-2.4-5.3-3.6c-3.7-3-7.1-6.5-11.1-8.9c-1.6-0.9-5.4-0.1-6.7,1.3c-1,1-0.5,5.1,0.7,6.4
		c3.1,3.1,7,5.4,10.6,8c5,4.2,10,8.4,15.2,12.8c-3.3,2.9-7.2,2.9-11,2.1c-5-1.1-9.8-2.8-14.7-4.3c-6.3-4.5-12.4-9.2-18.8-13.6
		c-15.7-10.8-31.4-21.4-47.2-32.1c-1.2-0.8-2.6-1.1-3.9-1.6C74.7,142,73.2,140.9,73.7,137.6z"/>
</g>
</svg>
