<?xml version="1.0" encoding="utf-8"?>
<!-- Generator: Adobe Illustrator 22.1.0, SVG Export Plug-In . SVG Version: 6.00 Build 0)  -->
<svg version="1.1" id="Capa_1" xmlns="http://www.w3.org/2000/svg" xmlns:xlink="http://www.w3.org/1999/xlink" x="0px" y="0px"
	 viewBox="0 0 330 247.3" style="enable-background:new 0 0 330 247.3;" xml:space="preserve">
<style type="text/css">
	.st0{fill:#29B1C2;}
</style>
<g>
	<path class="st0" d="M80.4,135.5c1.2,11.8,5.8,22.7,12.6,33c1.3-0.6,1.9-0.8,2.5-1.1c25.8-12.6,47-31.2,66.1-52.3
		c16.8-18.5,31.4-38.7,44.7-59.9c5.4-8.6,10.4-17.6,16.2-27.6c-49.2-5.5-96.7-5-144.2,5.6c0,20.2-0.2,39.8,0.1,59.5
		C78.6,106.9,78.9,121.3,80.4,135.5z M105,78.5c3-2.8,6.1-1.8,8.7,0.9c3.6,3.7,7.1,7.4,11.6,12.2c10.4-10.8,20.2-21,30.1-31.3
		c0.8-0.8,1.6-1.7,2.5-2.5c2.6-2.4,5.7-3.3,8.4-0.6c3,2.9,2.2,6-0.5,8.7c-12.1,12.1-24.1,24.2-36.3,36.3c-3,3-6.3,2.7-9.2-0.2
		c-5-4.9-9.9-9.8-14.8-14.8C102.7,84.5,102,81.3,105,78.5z"/>
	<path class="st0" d="M166,128c-1.3,1-2.7,1.9-3.8,3c-13.6,14.2-28.5,26.9-45.2,37.2c-5.7,3.5-11.7,6.7-18.5,10.6
		c6.7,6.8,13.2,13.2,19.5,19.8c3.2,3.4,6,3.7,9.8,0.8c15.6-12,31.6-23.7,47.1-35.9c5-3.9,8.9-9.2,13.3-13.8l0,0
		c1.2-0.8,2.6-1.3,3.6-2.3c17-17.7,32-36.9,45.4-57.5c8.9-13.7,16.4-27.3,14.5-44.7c-1.4-13.1-0.3-13.1-13.3-15.1
		c-3-0.5-4.7,0.2-6.2,3.1c-15.8,29.4-34.2,57-55.9,82.5C172.7,119.8,169.4,124,166,128z"/>
	<path class="st0" d="M250.8,89.7c-0.7,1.1-1.2,1.7-1.6,2.4c-13.3,21.2-28.2,41.1-45.5,59.2c-2.3,2.4-4.2,5.3-6.2,8
		c-1.6,1-3.4,1.9-4.8,3.2c-11.5,9.8-22.7,20-34.5,29.5c-7.9,6.3-16.4,11.8-25.9,18.4c10.2,4.3,19.5,8.5,29,12.2
		c2.1,0.8,4.9,0.7,7.1,0.1c14-4.1,26.9-10.7,38.3-19.8c6.3-5,11.5-11.2,17.3-16.9c0.8-0.6,1.7-1,2.3-1.7
		c13.4-16.3,22.8-34.5,24.4-55.7C251.6,115.9,250.8,103.1,250.8,89.7z"/>
</g>
</svg>
