<?xml version="1.0" encoding="utf-8"?>
<!-- Generator: Adobe Illustrator 22.1.0, SVG Export Plug-In . SVG Version: 6.00 Build 0)  -->
<svg version="1.1" id="Capa_1" xmlns="http://www.w3.org/2000/svg" xmlns:xlink="http://www.w3.org/1999/xlink" x="0px" y="0px"
	 viewBox="0 0 330 247.3" style="enable-background:new 0 0 330 247.3;" xml:space="preserve">
<style type="text/css">
	.st0{fill:#29B1C2;}
</style>
<g>
	<path class="st0" d="M162.4,114c6.4,0.5,14.2-4.4,17.2-10.9c2.8-1.9,5.6-3.8,9.7-6.6c-6-2.2-10.5-4-15.1-5.4
		c-2.2-0.6-4.7-0.2-7-0.3c-5.5-0.2-11.1-1.4-16.3-0.5c-22.9,4-40.3,21.2-45.3,44c-4.7,22,4.5,45.2,23.9,57.9
		c5.2,3.4,11.8,4.7,17.7,7c0.7,0.4,1.5,1.3,2.2,1.3c7.9,0,16,1,23.6-0.3c26.1-4.6,45.9-30.9,43.6-57.2c-0.2-2.6-2.5-4.9-3.8-7.4
		c-1.3,1.1-2.7,2.1-4,3.1c1.3-1,2.7-2.1,4-3.1c0.1-0.3,0.2-0.6,0.2-1c4-4.1,0.2-7.5-1-12.7c-2.4,3.4-4.1,5.6-5.7,7.9
		c-2.8,2-5.5,4.2-8.5,5.9c-7.6,4.6-5.6,12-5.8,18.8c-3.5,4.9-6.6,10.3-10.8,14.7c-3.2,3.3-7.7,5.3-11.6,7.8c-2.3,0-4.6-0.2-6.9,0
		c-17.8,1.5-33.7-13.2-33.9-31.5C128.9,128.1,145.1,112.7,162.4,114z"/>
	<path class="st0" d="M249.4,97.5c-0.7-1.8-1.3-3.7-2.2-6.2c-5.6,5.1-10.8,9.5-15.7,14.2c-2.5,2.4-0.9,5.8,2.9,7
		c0,1.6-0.5,3.3,0,4.7c4.4,12.1,6.5,24.5,4.7,37.4c-0.4,2.6-0.1,5.3-0.2,7.9c0,0,0.1,0.1,0.1,0.1c-0.7,1.4-1.5,2.7-2,4.1
		c-13.1,45.1-59.7,68.8-104,52.9c-1.5-0.5-3.2-0.5-4.9-0.7c-1.9-1.5-3.7-3.1-5.7-4.3c-28-16.8-42-41.6-40-74.1
		c1.9-30.7,18-52.8,45.7-66.3c5.2-2.5,10.8-4.2,16.2-6.3c3.6-0.3,7.2-0.7,10.9-0.9c17-1,32.8,2.9,47.3,11.7c1.3,0.8,3.8,1.5,4.5,0.9
		c5.4-4.6,10.5-9.5,15.8-14.3c-24.3-17.7-49-24.1-78.2-19.8c-5.9,0.9-11.5,3.6-17.2,5.4c-2.5,0.6-5.3,0.8-7.6,1.9
		c-33.7,16-54.5,42.2-59.4,79.4c-5.2,39.8,9.5,71.8,41.1,96.1c3.3,2.5,7.5,3.9,11.4,5.8c1.1,1,2,2.3,3.3,3
		c11.8,6,24.4,9.5,37.4,10.1c39.7,1.7,71-13.8,93-47c4.1-6.2,6.4-13.7,9.5-20.5c0,0-0.1-0.1-0.1-0.1c0.6-1.1,1.4-2,1.8-3.2
		c6.5-20.9,6.3-41.8-0.4-62.6C255.6,108.1,252.1,102.9,249.4,97.5z"/>
	<path class="st0" d="M302.6,44.2c-0.1,0.1-0.1,0.1-0.2,0.2c-5-0.3-9.9-0.8-14.9-0.9c-3.3-0.3-6.3-0.1-7.5-4.5
		c-0.4-1.4-2.6-2.1-3.8-3.3c-0.9-1-2.1-2.2-2.2-3.3c-0.3-2.8,0-5.7,0-8.6c0-7.2,0-14.4,0-22.6c-8.8,8.4-17,15.9-24.8,23.7
		c-1.6,1.6-2.6,4.3-2.7,6.6c-0.3,7-0.3,14,0,21c0.2,3.9-1.2,6.5-4,9.1c-17.2,15.5-34.3,31.1-51.4,46.8c-1.1,1-1.9,2.4-2.8,3.6
		c-0.5,0.1-1.1,0-1.4,0.3c-10.5,9.5-21,18.9-31.4,28.5c-2.9,2.7-2.7,7.8,0.1,10.3c3.1,2.9,6.6,3.1,9.8,0.4
		c5.2-4.4,10.3-8.9,15.3-13.6c5.8-5.4,11.4-10.9,17-16.4c1.6-1.2,3.4-2.3,4.9-3.6c16.3-14.7,32.6-29.3,48.6-44.3
		c3.6-3.3,7.1-4.5,11.9-4.4c5.3,0.1,10.6-0.7,15.9-1.1c0.1-0.1,0.1-0.1,0.2-0.2c3.2,0.1,7.5,1.7,9.3,0.2
		c8.6-7.2,16.6-15.3,25.5-23.9C309.4,44.2,306,44.2,302.6,44.2z"/>
</g>
</svg>
