<?xml version="1.0" encoding="utf-8"?>
<!-- Generator: Adobe Illustrator 22.1.0, SVG Export Plug-In . SVG Version: 6.00 Build 0)  -->
<svg version="1.1" id="Capa_1" xmlns="http://www.w3.org/2000/svg" xmlns:xlink="http://www.w3.org/1999/xlink" x="0px" y="0px"
	 viewBox="0 0 330 247.3" style="enable-background:new 0 0 330 247.3;" xml:space="preserve">
<style type="text/css">
	.st0{fill:#29B1C2;}
</style>
<g>
	<g>
		<path class="st0" d="M313,162.2c-3.2-17.9-11.5-26.2-29.4-30.1c-2.5-0.5-5-1.2-6.8-1.7c4.4-4.7,8.7-9.2,13.6-14.5
			c-11.8-1.9-12.4-2.5-12.2-13.5c0.2-8.3,0.9-16.6,1.1-24.9c0.3-11.9-0.7-23.6-5.2-34.8c-2.6-6.5-6.1-12.9-13.3-14.4
			c-6.9-1.4-12-5.1-17.3-9c-1.6-1.2-3.4-2.2-5.1-3.1c-12.8-6.2-25.3-6.4-36.3,3.3c-17,15-24.4,34-21.3,56.8
			c1.2,9.1,2.4,18.1,2.9,27.3c0.6,9.5-1,11-10.1,11.8c-0.2,0-0.4,0.4-1.3,1.5c4.1,4.4,8.3,8.9,12.5,13.4c-8.4,2.7-18.5,2.8-26.1,9.8
			c6.7,2.1,13.1,3.7,19.3,6c16.1,5.9,27,16.7,30.1,34.1c0.9,5.4,1.7,10.9,2.1,16.3c0.2,3.6,1.6,5,5.2,4.9c4.3-0.2,8.7-0.1,13,0.1
			c29.5,1.5,56.9-6.2,83.3-18.8c2.2-1.1,4-2,3.5-5.1C314.3,172.4,313.9,167.2,313,162.2z M246.2,46.8c5.7,3.5,8.7,8.8,10.3,15
			c4.1,15.7,0.8,30-9.4,42.5c-3.1,3.9-7.1,7.4-11.4,9.8c-5.1,2.9-11.3,2.2-15.6-1.4c-11.3-9.5-18.8-21.3-18.9-36.9
			C220.2,72.2,233,59.5,246.2,46.8z M257,150.5c-2.1-3.8-3.8-6.9-5.9-10.7c-5.7,7.8-11,15.1-16.3,22.5c-3.3,4.6-3.8,4.6-7,0.2
			c-5.2-7.3-10.5-14.5-16.2-22.5c-2.1,3.6-4,6.7-6.1,10.4c-6-6.9-11.6-13.3-17-19.4c7.7,0,15.3-0.4,22.7,0.2
			c2.6,0.2,5.7,2.1,7.5,4.1c4.4,4.9,8.3,10.3,12.6,15.9c2.5-3.4,5-7,7.6-10.5c1.6-2.1,3.3-4.2,5.2-6c2.8-2.7,5.8-3.8,10.3-3.2
			c6.2,0.9,12.7-0.2,19.5-0.4C268.6,137.2,263,143.7,257,150.5z"/>
		<path class="st0" d="M102.5,223.9c1.2,0.2,2.5,0.7,3.7,0.7c23.4-0.1,46.4-3.2,68.9-9.6c9.7-2.8,19.2-6.2,29.3-9.5
			c-1.2-5.1-2.2-9.4-3.2-13.7c-0.4-4.1-0.1-8.3-1.2-12.2c-3.7-13.6-11.9-23.4-25.8-27.5c-6.3-2.1-12.6-4.1-18.9-6.2
			c-1.3-0.5-2.7-1-4.2-1.6c-6.1,15.6-12,30.7-18.1,46.5c-7.1-5.9-13.8-11.4-20.2-17.1c-0.8-0.7-0.7-3-0.3-4.3
			c2.4-6.7,5.1-13.3,7.7-20c-9.2,0-17.9,0-27.1,0c3,7,5.8,13.4,8.4,19.8c0.5,1.3,0.9,3.8,0.1,4.4c-6.5,5.6-13.2,10.9-20.3,16.6
			c-4.6-11.9-8.9-23.2-13.4-34.5c-5.2-12.9-1.5-12.7-16.9-8.3c-10,2.8-19.5,6.9-26.9,14.6c-11.7,12.1-11.7,27.9-13.3,43.2
			c22.7,8.9,45.7,14.5,69.3,17.5C87.6,223.6,95.1,223.6,102.5,223.9z M168.3,158.8c0-0.3,0-0.5,0-0.8l0,0
			C168.3,158.3,168.3,158.5,168.3,158.8c-11.4,11.1-22.8,22.2-34.1,33.4C145.5,181,156.9,169.9,168.3,158.8z"/>
		<path class="st0" d="M52.4,70.9c-6.1,13.2-1,24.7,6.1,35.5c4.6,6.9,10.3,13,15.4,19.5c8.2,10.3,18.3,16.9,36,16.7
			c8.4-0.4,18.6-5.1,26-15.5c4.1-5.8,8-11.8,12.9-16.8c6.5-6.6,10.1-14.5,11.4-23.3c0.7-4.4-0.3-9.1-0.6-13.6
			c-0.2-2.9-0.9-5.7-1.1-8.5c-0.1-1.6,0.8-3.3,0.6-4.9c-1.5-9.6-4.5-18.7-10.3-26.7c-14.1-19.2-39.4-26.4-62-18.2
			c-23.1,8.4-37.2,33.6-34,53.6C52.9,69.3,52.7,70.2,52.4,70.9z M58.9,74.2c0.2-0.6,1.2-1.1,1.1-1.6c-1-8.5,6.3-9.2,11.3-11.2
			c16.5-6.4,31.8-15,46.2-25.2c3.7-2.6,5.3-2.3,8.2,1.5c6.2,8,13.1,15.3,20.1,22.6c2.7,2.9,5.5,5.3,4.7,9.7
			c-0.2,0.9-0.1,2.2,0.4,2.9c6.8,10.3,1.4,19.4-3.8,27.7c-5.2,8.4-11.9,15.8-18.1,23.6c-5.8,7.4-13.5,11-22.9,11.1
			c-9.3,0.1-17.3-2.9-23.3-10.2c-4-4.9-7.6-10.1-11.5-15.1c-1.3-1.7-2.6-3.4-4.2-4.8C60,98.6,57.4,90,56.8,80.6
			C56.7,78.5,58.1,76.3,58.9,74.2z"/>
	</g>
</g>
</svg>
