<?xml version="1.0" encoding="utf-8"?>
<!-- Generator: Adobe Illustrator 22.1.0, SVG Export Plug-In . SVG Version: 6.00 Build 0)  -->
<svg version="1.1" id="Layer_1" xmlns="http://www.w3.org/2000/svg" xmlns:xlink="http://www.w3.org/1999/xlink" x="0px" y="0px"
	 viewBox="0 0 55 57.3" style="enable-background:new 0 0 55 57.3;" xml:space="preserve">
<style type="text/css">
	.st0{fill:#FFFFFF;}
</style>
<path class="st0" d="M27.5,1.2C12.3,1.2,0,13.5,0,28.6c0,15.2,12.3,27.5,27.5,27.5C42.7,56.1,55,43.8,55,28.6
	C55,13.5,42.7,1.2,27.5,1.2z M28.7,12c7.8,0.3,14.5,7.3,14.4,14.8c0,0.2,0,0.4,0,0.6c0,0.6,0,1.3-0.9,1.2c-1,0-0.8-1-0.9-1.7
	c0-0.1,0-0.1,0-0.2c-1-8-4.8-11.8-12.9-13c-0.7-0.1-1.7,0-1.6-0.8C26.9,11.6,28.1,12.1,28.7,12z M29.8,17.7c-0.7-0.2-1.9,0-1.7-1.2
	c0.2-1.1,1.2-0.7,2-0.6c5,0.6,9.1,4.8,9.1,9.5c0,0.3,0,0.7,0,1c0,0.3-0.2,0.6-0.6,0.7c-0.9,0.1-1-0.4-1.1-1c0-0.2,0-0.5-0.1-0.7
	C36.5,20.6,34.8,18.8,29.8,17.7z M35.3,24.6c0,0.5,0,1-0.4,1.2c-0.1,0.1-0.2,0.1-0.4,0.1c-0.3,0-0.5-0.1-0.7-0.3
	c-0.1-0.2-0.2-0.4-0.3-0.7c-0.2-2-1.3-3.2-3.3-3.5c-0.6-0.1-1.2-0.3-0.9-1.1c0.2-0.5,0.7-0.6,1.2-0.6C32.8,19.7,35.4,22.3,35.3,24.6
	z M43.2,39.8c-0.9,2.4-3.8,4.8-6.3,4.7c-0.4-0.1-1.1-0.2-1.7-0.5c-9-3.8-16.1-9.6-20.8-17.6c-1.1-1.8-2.1-3.8-2.9-5.8
	c-1.5-3.7,0.1-6.8,3.9-8.1c0.7-0.2,1.4-0.2,2.1,0c1.7,0.6,5.8,6.2,5.9,7.9c0.1,1.3-0.8,2-1.7,2.6c-1.1,0.7-1.5,1.6-1.4,2.5
	c0,0.5,0.2,1.1,0.4,1.6c1.6,3.6,4.4,6,8,7.6c1.3,0.6,2.5,0.5,3.4-0.8c1.6-2.4,3.5-2.2,5.7-0.8c1.1,0.7,2.1,1.5,3.2,2.3
	C42.3,36.7,44.1,37.6,43.2,39.8z"/>
<g>
	<path class="st0" d="M27.5,18c-7.1,0-12.8,5.7-12.8,12.8c0,7.1,5.7,12.8,12.8,12.8c7.1,0,12.8-5.7,12.8-12.8
		C40.3,23.7,34.6,18,27.5,18z M27.5,32.4c-0.6,0-1.1-0.4-1.4-0.9h-7.8v-1.4h7.8c0.2-0.3,0.4-0.6,0.7-0.7v-7.8h1.4v7.8
		c0.5,0.3,0.9,0.8,0.9,1.4C29.1,31.7,28.4,32.4,27.5,32.4z"/>
	<polygon class="st0" points="29.1,15.3 29.2,15.2 29.2,12 29.1,11.8 25.9,11.8 25.8,12 25.8,15.2 25.9,15.3 	"/>
	<path class="st0" d="M27.5,1.1C12.3,1.1,0,13.4,0,28.6c0,15.2,12.3,27.5,27.5,27.5C42.7,56.1,55,43.8,55,28.6
		C55,13.4,42.7,1.1,27.5,1.1z M27.5,46c-8.4,0-15.2-6.8-15.2-15.2c0-7.4,5.3-13.5,12.3-14.9l-0.2-0.8V12c0-0.9,0.7-1.5,1.5-1.5h3.1
		c0.9,0,1.5,0.7,1.5,1.5v3.1l-0.2,0.8c2.7,0.5,5.2,1.8,7.1,3.5l1.3-1.9c-0.3-0.4-0.5-0.9-0.5-1.4c0-1.2,1-2.2,2.1-2.2
		c1.2,0,2.2,1,2.2,2.2c0,1.2-1,2.2-2.2,2.2c-0.3,0-0.6-0.1-0.8-0.2l-1.4,2c2.7,2.7,4.4,6.5,4.4,10.7C42.7,39.2,35.9,46,27.5,46z"/>
	<path class="st0" d="M40.5,17.3c0.6,0,1.2-0.5,1.2-1.2c0-0.6-0.5-1.2-1.2-1.2c-0.6,0-1.2,0.5-1.2,1.2
		C39.3,16.8,39.8,17.3,40.5,17.3z"/>
</g>
</svg>
