<?xml version="1.0" encoding="utf-8"?>
<!-- Generator: Adobe Illustrator 22.1.0, SVG Export Plug-In . SVG Version: 6.00 Build 0)  -->
<svg version="1.1" id="Layer_1" xmlns="http://www.w3.org/2000/svg" xmlns:xlink="http://www.w3.org/1999/xlink" x="0px" y="0px"
	 viewBox="0 0 67.4 70.2" style="enable-background:new 0 0 67.4 70.2;" xml:space="preserve">
<style type="text/css">
	.st0{fill:#FFFFFF;}
</style>
<path class="st0" d="M33.7,1.7c-18.5,0-33.4,15-33.4,33.4c0,18.5,15,33.4,33.4,33.4c18.5,0,33.4-15,33.4-33.4
	C67.1,16.6,52.1,1.7,33.7,1.7z M42.5,32.1l-0.3,3.1h-5.9c0,8.9,0,19.8,0,19.8h-7.9c0,0,0-10.8,0-19.8h-4V32v-4.8h3.9v-3.6
	c0-3.2,1.5-8.3,8.3-8.3l6.1,0v6.8c0,0-3.7,0-4.4,0c-0.7,0-1.8,0.4-1.8,1.9v3.2h6.3L42.5,32.1z"/>
</svg>
