<?xml version="1.0" encoding="utf-8"?>
<!-- Generator: Adobe Illustrator 22.1.0, SVG Export Plug-In . SVG Version: 6.00 Build 0)  -->
<svg version="1.1" id="Layer_1" xmlns="http://www.w3.org/2000/svg" xmlns:xlink="http://www.w3.org/1999/xlink" x="0px" y="0px"
	 viewBox="0 0 67.4 70.2" style="enable-background:new 0 0 67.4 70.2;" xml:space="preserve">
<style type="text/css">
	.st0{fill:#FFFFFF;}
</style>
<g>
	<polygon class="st0" points="48.9,26.6 48.9,20.7 48.9,19.8 48,19.9 42.2,19.9 42.2,26.6 	"/>
	<path class="st0" d="M44.1,32.1c0.3,0.9,0.4,1.9,0.4,2.9c0,6-4.9,10.8-10.8,10.8c-6,0-10.8-4.9-10.8-10.8c0-1,0.1-2,0.4-2.9
		c0.1-0.4,0.2-0.8,0.4-1.1h-5.9v2.1v14.1c0,2.1,1.7,3.8,3.8,3.8h24.3c2.1,0,3.8-1.7,3.8-3.8V33.1V31h-5.9
		C43.9,31.4,44,31.8,44.1,32.1z"/>
	<path class="st0" d="M33.7,1.7c-18.5,0-33.4,15-33.4,33.4c0,18.5,15,33.4,33.4,33.4c18.4,0,33.4-15,33.4-33.4
		C67.1,16.6,52.1,1.7,33.7,1.7z M53.5,31v3v13.2c0,4.2-3.4,7.6-7.6,7.6H21.6c-4.2,0-7.6-3.4-7.6-7.6V34v-3v-8.1
		c0-4.2,3.4-7.6,7.6-7.6h24.3c4.2,0,7.6,3.4,7.6,7.6V31z"/>
	<path class="st0" d="M33.7,42c3.8,0,7-3.1,7-7c0-1.2-0.3-2.4-0.9-3.4c-0.1-0.2-0.3-0.5-0.4-0.7c-1.3-1.8-3.3-2.9-5.6-2.9
		c-2.3,0-4.4,1.1-5.6,2.9c-0.2,0.2-0.3,0.4-0.4,0.7c-0.6,1-0.9,2.2-0.9,3.4C26.7,38.9,29.9,42,33.7,42z"/>
</g>
</svg>
