<?xml version="1.0" encoding="utf-8"?>
<!-- Generator: Adobe Illustrator 22.1.0, SVG Export Plug-In . SVG Version: 6.00 Build 0)  -->
<svg version="1.1" id="Layer_1" xmlns="http://www.w3.org/2000/svg" xmlns:xlink="http://www.w3.org/1999/xlink" x="0px" y="0px"
	 viewBox="0 0 55 57.3" style="enable-background:new 0 0 55 57.3;" xml:space="preserve">
<style type="text/css">
	.st0{fill:#FFFFFF;}
</style>
<g>
	<path class="st0" d="M27.5,1.1C12.3,1.1,0,13.4,0,28.6c0,15.2,12.3,27.5,27.5,27.5C42.7,56.1,55,43.8,55,28.6
		C55,13.4,42.7,1.1,27.5,1.1z M27.1,46.6c0,0-11.8-19.1-11.8-24.9c0-6,6.4-11.3,11.8-11.3c5.4,0,11.8,5.2,11.8,11.3
		C39,27.6,27.1,46.6,27.1,46.6z"/>
	<path class="st0" d="M27.1,14.1c-4,0-7.2,3.2-7.2,7.2c0,4,3.2,7.2,7.2,7.2c4,0,7.2-3.2,7.2-7.2C34.4,17.4,31.1,14.1,27.1,14.1z"/>
</g>
</svg>
