<?xml version="1.0" encoding="utf-8"?>
<!-- Generator: Adobe Illustrator 22.1.0, SVG Export Plug-In . SVG Version: 6.00 Build 0)  -->
<svg version="1.1" id="Layer_1" xmlns="http://www.w3.org/2000/svg" xmlns:xlink="http://www.w3.org/1999/xlink" x="0px" y="0px"
	 viewBox="0 0 55 57.3" style="enable-background:new 0 0 55 57.3;" xml:space="preserve">
<style type="text/css">
	.st0{fill:#FFFFFF;}
</style>
<path class="st0" d="M27.5,1.1C12.3,1.1,0,13.4,0,28.6c0,15.2,12.3,27.5,27.5,27.5C42.7,56.1,55,43.8,55,28.6
	C55,13.4,42.7,1.1,27.5,1.1z M12.2,17.4h30.7c0.5,0,1,0.2,1.3,0.5L27.5,30.7L10.8,18C11.2,17.7,11.6,17.4,12.2,17.4z M10.4,39.1
	V20.3l10.5,8L10.5,39.5L10.4,39.1z M42.9,40.7H12.2l-0.7-0.1l10.6-11.4l4.8,3.7l0.6,0.2l0.6-0.2l4.8-3.7l10.6,11.4L42.9,40.7z
	 M44.6,39.1l-0.1,0.3L34.2,28.2l10.5-8V39.1z"/>
</svg>
