<?xml version="1.0" encoding="utf-8"?>
<!-- Generator: Adobe Illustrator 22.1.0, SVG Export Plug-In . SVG Version: 6.00 Build 0)  -->
<svg version="1.1" id="Layer_1" xmlns="http://www.w3.org/2000/svg" xmlns:xlink="http://www.w3.org/1999/xlink" x="0px" y="0px"
	 viewBox="0 0 67.4 70.2" style="enable-background:new 0 0 67.4 70.2;" xml:space="preserve">
<style type="text/css">
	.st0{fill:#FFFFFF;}
</style>
<path class="st0" d="M33.7,1.7c-18.5,0-33.4,15-33.4,33.4c0,18.5,15,33.4,33.4,33.4c18.5,0,33.4-15,33.4-33.4
	C67.1,16.6,52.1,1.7,33.7,1.7z M49.4,29c0,0.3,0,0.7,0,1c0,1.6-0.2,3.2-0.6,4.8C46.8,44,39,52.8,26.4,52.8c-4.6,0-8.9-1.3-12.4-3.6
	c0.6,0.1,1.3,0.1,1.9,0.1c3.8,0,7.3-1.3,10.1-3.4c-3.6-0.1-6.5-2.4-7.6-5.5c0.5,0.1,1,0.1,1.5,0.1c0.7,0,1.5-0.1,2.1-0.3
	c-2.7-0.5-5-2.4-6-4.9c-0.4-0.9-0.6-1.9-0.6-2.9c0,0,0-0.1,0-0.1c1.1,0.6,2.3,1,3.7,1c-2.2-1.4-3.6-3.9-3.6-6.7c0-1.5,0.4-2.8,1.1-4
	c4,4.8,10,8,16.7,8.4c-0.1-0.6-0.2-1.2-0.2-1.8c0-4.4,3.6-8,8.1-8c2.3,0,4.4,1,5.9,2.5c1.8-0.4,3.6-1,5.2-1.9
	c-0.6,1.9-1.9,3.4-3.6,4.4c1.6-0.2,3.2-0.6,4.7-1.3C52.4,26.5,51,27.9,49.4,29z"/>
</svg>
