<?xml version="1.0" encoding="utf-8"?>
<!-- Generator: Adobe Illustrator 22.1.0, SVG Export Plug-In . SVG Version: 6.00 Build 0)  -->
<svg version="1.1" id="Layer_1" xmlns="http://www.w3.org/2000/svg" xmlns:xlink="http://www.w3.org/1999/xlink" x="0px" y="0px"
	 viewBox="0 0 55 57.3" style="enable-background:new 0 0 55 57.3;" xml:space="preserve">
<style type="text/css">
	.st0{fill:#FFFFFF;}
</style>
<g>
	<path class="st0" d="M27.5,1.1C12.3,1.1,0,13.4,0,28.6c0,15.2,12.3,27.5,27.5,27.5C42.7,56.1,55,43.8,55,28.6
		C55,13.4,42.7,1.1,27.5,1.1z M27.8,42.9c-2.8,0-5.4-0.7-7.7-2l-8.9,2.8l2.9-8.5c-1.5-2.4-2.3-5.2-2.3-8.2c0-0.2,0-0.5,0-0.7
		c0.4-8.4,7.4-15.2,16-15.2c8.7,0,15.8,6.9,16,15.5c0,0.1,0,0.3,0,0.4C43.8,35.8,36.6,42.9,27.8,42.9z"/>
	<path class="st0" d="M27.8,13.7c-7,0-12.7,5.3-13.4,12.1c0,0.4-0.1,0.9-0.1,1.3c0,2.9,1,5.6,2.6,7.8l-1.7,5l5.2-1.6
		c2.1,1.4,4.7,2.2,7.4,2.2c7.4,0,13.4-6,13.4-13.3c0-0.4,0-0.7,0-1C40.7,19.1,34.9,13.7,27.8,13.7z M35.7,32.6
		c-0.3,0.9-1.9,1.8-2.6,1.9c-0.7,0.1-0.7,0.6-4.7-1c-4-1.6-6.5-5.6-6.7-5.9c-0.2-0.2-1-1.3-1.4-2.7C20.1,24.4,20,24,20,23.5
		c0-1.9,1-2.9,1.4-3.2c0.4-0.4,0.8-0.5,1-0.5c0.3,0,0.5,0,0.8,0c0.2,0,0.6-0.1,0.9,0.6c0.3,0.8,1.1,2.7,1.2,2.9
		c0.1,0.2,0.2,0.4,0,0.7c-0.1,0.2-0.2,0.3-0.3,0.5c0,0.1-0.1,0.1-0.1,0.2c-0.2,0.2-0.4,0.5-0.6,0.7c-0.2,0.2-0.4,0.4-0.2,0.8
		c0.2,0.4,1,1.7,2.2,2.7c1.5,1.3,2.8,1.7,3.2,1.9c0.4,0.2,0.6,0.2,0.8-0.1c0.2-0.3,1-1.1,1.2-1.5c0.3-0.4,0.5-0.3,0.9-0.2
		c0.4,0.1,2.3,1.1,2.7,1.3c0.4,0.2,0.7,0.3,0.8,0.5C36,30.9,36,31.6,35.7,32.6z"/>
</g>
</svg>
